<svg xmlns="http://www.w3.org/2000/svg" width="1604" height="1016" viewBox="0 0 1203 762"><path fill="currentColor" d="M79.3 35.5c-2.8 1.4-5.9 3.7-6.7 5-1.5 2.3-2.3 2.5-8.7 2.5-10.9 0-17.5 3.7-22.2 12.5l-2.2 4V377c0 296 .1 317.8 1.7 321.2 2.8 6.2 6.5 10.3 12 13.4l5.3 2.9h518l4-2.2c4.7-2.5 8.5-6.4 11.1-11.3 1.8-3.2 1.9-6.8 2.2-45.8l.3-42.2H591c-1.7 0-5.1.5-7.6 1.1l-4.4 1.1v79.5l-2.6 2.7-2.7 2.6H86.1l-1.5-2.2c-1.4-2-1.6-34.4-1.6-324.4 0-310.8.1-322.1 1.8-323.7S105 48 330.7 48h244l2.2 2.4c1.8 1.9 2.2 3.3 1.9 7.6l-.3 5.2-5.3 1.8c-3 1.1-7.4 3.1-9.8 4.5-3.9 2.3-4.9 2.5-7.6 1.6-4.4-1.6-12.3-1.4-16.5.4-5.9 2.5-9.6 5.9-12.8 11.6-6.8 12.6-1.7 28.1 11.4 34.6 2.5 1.3 5.9 1.8 11.2 1.8 6.7 0 8.1-.4 12.5-3 7.3-4.5 10.8-10.8 11.3-20.2.4-9.4-.5-10.5-5.9-6.9-3.5 2.3-4 3.1-4 6.5 0 7.1-7.1 14.1-14.5 14.1-7.6 0-14.5-7.1-14.5-14.9S540.4 80 547.2 80h2.7l-3.5 5.1c-5.8 8.7-4.2 16.9 3.4 16.9 3.3 0 3.4-.1 9.5-9.4 6.3-9.7 18.7-15.3 35.7-16.3 18-1 35.2 5.3 41.8 15.2 5.1 7.7 6 8.5 9.2 8.5 3.8 0 7-3.1 7-6.8 0-2.9-4.7-11.9-7.4-14.1-2.9-2.4-1.8-3.4 3.3-2.9 12.5 1.2 18.1 14.5 10.5 24.6-8.3 10.7-23.9 6.6-26.2-7-.6-3.6-1.4-4.6-4.7-6.5-4.7-2.6-5.5-1.9-5.5 5.2 0 10.6 7.3 20.1 17.7 23.1 9.6 2.8 18.2.3 25.5-7.3 7.2-7.5 8.9-18.3 4.4-27.9-2.6-5.6-9.1-11.8-14.4-13.5-4.4-1.5-13.8-.8-18 1.4-3.2 1.6-3.6 1.6-7.5-.5-2.3-1.2-6-2.7-8.2-3.3l-4-1.2-.3-5.8c-.2-4.3.1-6.2 1.4-7.6 1.7-1.9 7.8-1.9 246-1.9 220.7 0 244.4.2 245.8 1.6 1.5 1.4 1.6 32.2 1.6 324.3 0 311.4-.1 322.8-1.8 324.4S1091 700 866.3 700H623.2l-2.6-3.1-2.6-3.1V616l-2.7-1.1c-1.5-.5-4.6-1.3-7-1.6l-4.3-.6v84.4l2.5 4.9c3.1 6.1 8.9 10.5 15.8 12 3.8.8 76 1 260.2.8l255-.3 5.4-3c5.7-3.2 9.1-6.9 11.6-12.8 1.3-3.2 1.5-38.4 1.5-321.7 0-312.9 0-318.1-1.9-321.9-2.6-5-8.1-9.7-12.8-11-2.1-.6-6.6-1.1-10-1.1-5.7 0-6.3-.2-8.2-2.9-1.2-1.6-4.1-3.9-6.4-5l-4.4-2.1-246.9.2-246.9.3-4 2.1c-2.2 1.1-5.3 4-7 6.3-2.5 3.6-3 5.4-3.3 11.7l-.4 7.4H594v-4.3c0-2.3-.5-6-1.1-8.2-1.4-5.2-9-12.6-14.5-14.3-3.2-.9-58-1.2-249.1-1.2H84.4zM68 97.7c0 120 1.2 600 1.5 601.1.3.8-.9 1.2-4.1 1.2-3.9 0-5.1-.5-8-3.4l-3.4-3.4V378.3c0-287.6.1-315.1 1.6-317.1 1.9-2.8 4.7-4.1 9.2-4.1L68 57zm1070.7-38.1c1.2.8 2.5 2.8 2.8 4.6s.4 144.3.3 316.6l-.3 313.4-3.3 2.9c-2.5 2.3-4.2 2.9-7.6 2.9h-4.4l.9-3.8c.5-2 .9-144.4.9-320.9 0-252.8.3-317.2 1.3-317.6 1.8-.7 6.9.3 9.4 1.9M587.5 81.7c-1.1.2-3.5.9-5.2 1.4l-3.3 1-.2 24.6-.3 24.5-6.1 2.2c-3.3 1.2-7.7 3.2-9.7 4.5-3.4 2.1-4.1 2.2-9.1 1-11-2.4-21.1 1.8-26.5 11.2-5.7 10.1-4.7 20.5 2.8 29.1 11.2 12.7 30.9 11.4 39.6-2.6 2.4-4.1 3-6.2 3.4-12.3.2-4.1-.1-7.9-.6-8.4-.6-.6-2.5.2-5.1 2.1-3.7 2.7-4.2 3.5-4.2 6.9 0 6.6-7 13.1-14 13.1-11.4 0-18.9-13.2-13-22.8 2.4-3.9 7.5-7.2 11.3-7.2h2.8l-3.3 4.7c-2.7 4-3.3 5.7-3.3 10.2 0 4.9.3 5.7 2.6 7 3.9 2.2 8.1.1 10.4-5 2.3-5 9.7-12 16.5-15.4 14-7.1 35.2-7.1 50.6-.1 7.5 3.4 10.2 5.7 15 12.4 3.3 4.7 4.6 5.8 7.3 6 4.5.5 7.1-2.1 7.1-6.8 0-2.9-1.1-5.2-4.5-9.9L644 147l2.6-.6c3.6-.9 11 2.2 13.5 5.8 5 6.9 2.7 18.5-4.4 22.8-4.5 2.8-11.5 2.6-15.7-.3-3.8-2.6-7-8-7-11.9 0-2.2-.8-3.2-4.1-4.9-5.3-2.6-6.2-1.6-5.5 6.4 1.3 13.4 11.3 22.6 24.6 22.7 18.5 0 30.6-19.5 22.6-36.5-5.7-12.4-21-18-32.6-12-3.1 1.6-3.4 1.6-8.9-.8-3.1-1.4-6.8-2.9-8.3-3.2l-2.8-.7v-24.9c0-28.1.7-26.1-8.7-27.4l-5.3-.7v24.9c0 13.7-.2 25.2-.4 25.4-.3.2-2.5.3-5 .1l-4.6-.4V81l-2.2.1c-1.3.1-3.2.3-4.3.6m-452.1 53.8c-.4.8-.4 2.2 0 3 .5 1.3 20.7 1.5 173.5 1.5 171.8 0 173 0 173.6-2 .3-1.1.3-2.4 0-3-.4-.7-58.3-1-173.6-1-152.8 0-173 .2-173.5 1.5m579 0c-.4.8-.1 2.2.6 3 1.1 1.3 21.9 1.5 173.4 1.3l172.1-.3v-5l-172.8-.3c-153.6-.2-172.8 0-173.3 1.3m-125.9 16.2c-1.1.2-3.7.9-5.7 1.4l-3.8 1-.2 28-.3 28.1-5.7 1.8c-3.1 1-7.7 2.9-10.2 4.4-3.7 2.1-4.9 2.4-7.1 1.6-3.4-1.3-11-1.3-15.8.1-2.2.6-5.9 3-8.7 5.7-14.9 14.5-6.4 39.2 14.7 42.7 9.4 1.5 20.9-4.9 25.3-14.1 2.4-4.8 3.3-16.6 1.4-18.3-.5-.5-2.4.1-4.5 1.4-2.9 1.9-3.8 3.2-4.3 6.5-1.4 9-6.7 14-14.7 14-14.7 0-20.5-19-8.3-27.1 1.6-1 4.4-1.9 6.3-1.9h3.4l-2 2.2c-5.9 6.5-7 16-2.2 18.7 4.2 2.3 7.5.8 10.3-4.7 2.7-5.4 9.5-12.1 15.3-15 19-9.7 47.8-7 61.6 5.7 2.4 2.2 5.2 5.6 6.2 7.5 1.1 2 3.2 4.1 4.8 4.7 2.4 1 3.2.9 5.5-.8 4.9-3.7 3.9-10-3-17.9-2.6-2.9-2.9-3.7-1.7-4.5 4.2-2.6 12.2.8 15.6 6.7 6.1 10.5-.9 23.4-12.6 23.4-8 0-15.1-6.4-15.1-13.7 0-2.8-.6-3.6-4-5.3-2.3-1.1-4.5-1.8-5-1.5-1.4.8-1.2 8.9.2 13.6 1.5 5.1 7 11.4 12.1 14 5.8 3 14.6 3.6 20.3 1.4 20.3-7.7 22.3-36.8 3.2-46.6-6.2-3.2-11.8-3.5-19.7-.9-6.8 2.2-6.8 2.2-10.7.2-2.2-1.1-5.6-2.5-7.6-3.1l-3.8-1.3V154l-2.3-.9c-1.3-.5-4.5-1.2-7-1.6l-4.7-.7V208h-10v-28.5c0-31.1.4-29.2-5.5-27.8m-452.2 31.8c-1.4 1.1-1.6 1.8-.7 3.2 1.1 1.7 8.3 1.8 173.4 1.8s172.3-.1 173.4-1.8c.9-1.5.7-2.1-.9-3.3-2.9-2.1-342.3-2-345.2.1m579.2-.1c-1.6 1.2-1.8 1.8-.9 3.3 1.1 1.7 8.4 1.8 173.1 2.1 182.2.2 175.5.4 173.7-4.1-.3-.8-1.5-1.8-2.7-2-1.2-.3-78.5-.6-171.7-.6-147-.1-169.8.1-171.5 1.3M589 227.7c-1.4.2-4.2.9-6.2 1.4l-3.8 1v56.6l-4.2 1.2c-2.4.7-7.1 2.8-10.5 4.7-5.2 2.8-6.7 3.2-8.9 2.4-4.5-1.8-12.6-1.1-17.9 1.4-8.9 4.1-13.8 11.9-13.8 22.1 0 9.9 4.8 17.7 13.8 22.2 12.7 6.5 28.6.6 34.3-12.6 1.6-3.7 2.1-14.8.8-16.9-.5-.9-1.7-.6-4.6 1.1-3.2 1.8-4 2.8-4 5.2-.1 4.7-3.5 11.2-7.2 13.5-2.2 1.3-5.1 2-8.6 2-4.8 0-5.7-.4-9.5-3.9-4.1-3.9-4.2-4.1-4.2-10.6s.1-6.7 4.2-10.6c3-2.8 5.1-3.9 7.3-3.9 1.6 0 3 .2 3 .4 0 .3-1.4 2.7-3.1 5.4-3.9 6.4-3.9 12.8.2 15.1 4.2 2.3 7.5.8 10.3-4.7 6.7-13.2 21.7-20.6 41.6-20.6 19.8 0 35.3 7.4 42.2 20.2 2.2 4.1 6.1 5.1 9.6 2.5 1.5-1.1 2.8-3.2 3-4.7.4-3.1-3.2-10.7-6.5-13.8s-2.9-3.8 2.1-3.8c10.5 0 18 12.5 13.1 21.9-2.1 4.1-7 7.9-11.1 8.7-8.3 1.5-17.4-5.7-17.4-13.8 0-3.4-.3-3.9-4.2-5.6-2.4-1.1-4.7-1.6-5.2-1.1-.5.4-.7 3.7-.4 7.2.5 8.7 4.3 15 11.8 19.4 4.8 2.9 6.3 3.3 12.5 3.3 8.7 0 13.5-2.1 19.2-8.3 12.2-13.2 5.8-36.3-11.4-41.3-5.8-1.7-9.8-1.4-16.8 1.2-3.8 1.4-4.3 1.4-9.5-.9-3-1.3-6.7-2.7-8.2-3.1l-2.8-.6v-56.8l-3.2-1c-1.8-.6-5-1.3-7-1.7l-3.8-.6V284h-10l-.2-28.2c-.2-17.7-.7-28.2-1.3-28.3-.5-.1-2.1 0-3.5.2m-452.7 4c-1.6.6-1.7 3.5-.1 5.1s341.9 1.8 344.9.2c2.4-1.4 2.4-3.6 0-5-2-1-342.2-1.4-344.8-.3m579.1.7c-1.5 1.2-1.7 1.8-.8 3.3 1.1 1.7 8.4 1.8 171.5 2.1 93.7.1 171.4 0 172.7-.3 2.6-.6 3.1-4.9.6-5.9-.9-.3-78.2-.6-171.8-.6-146.7 0-170.5.2-172.2 1.4m-580 49.1c-.4.8-.4 2.2 0 3 .5 1.3 20.7 1.5 173.5 1.5 115.3 0 173.2-.3 173.6-1 .3-.6.3-1.9 0-3-.6-2-1.8-2-173.6-2-152.8 0-173 .2-173.5 1.5m579.6 0c-.7.8-1 2.2-.6 3 .5 1.3 19.7 1.5 173.3 1.3l172.8-.3v-5l-172.1-.3c-151.5-.2-172.3 0-173.4 1.3m-130 23.8-5.5 1.2-.5 28.4-.5 28.4-4.1 1.2c-2.2.6-6.7 2.6-10 4.4-5.7 3-6.3 3.1-10.9 2.1-20.6-4.6-37.1 17.3-27 35.9 4.8 8.8 12.2 13.1 22.4 13.1 11.4 0 21.7-8.2 24-19 1.1-5.1.6-12.6-1-13.5-.4-.3-2.3.2-4.2 1.1-3.1 1.5-3.5 2.2-4.1 6.8-.6 5.7-2.7 9-7.6 12.3-8.9 6.1-22.1-.9-22.2-11.9-.2-7.9 5.1-14.3 12.6-15.5l3.9-.6-3.3 4.8c-5.5 7.9-5.2 16.5.6 17.9 3.6.9 6.9-1.4 9.2-6.6 3.5-7.8 14.4-15.4 26.2-18.3 8.6-2.1 26.8-1.7 34.7.9 6.9 2.2 17.3 9.3 19.8 13.5 3.6 6.2 7.2 9.3 9.7 8.6 3.8-1.2 5.8-3.6 5.8-6.9 0-3.6-3.1-9.9-6.6-13.7-3.2-3.4-3-3.9 1.4-3.9 8 .1 15.2 7.2 15.2 15.3 0 8.9-5.5 14.8-14.4 15.4-8.3.6-13.9-4-15.4-12.8-.6-3.4-1.4-4.7-4-6.2-5.2-3.1-6.6-1.8-6 5.6 1.1 13.2 9.5 22.1 22.2 23.4 14.7 1.5 27.6-10 27.6-24.6 0-7.8-1.4-12.1-5.7-17.1-7-8.1-17-10.8-27.8-7.4-5.1 1.6-5.3 1.6-11.6-.8-3.5-1.4-7.2-2.8-8.1-3.1-1.6-.6-1.8-3.1-2-28.8l-.3-28.3-2.5-.6c-1.4-.4-4.4-1-6.7-1.4l-4.3-.6v57h-10l-.2-28.2c-.3-31.9.4-29.4-8.8-27.5m-449.6 25.2c-.4.8-.4 2.2 0 3 .5 1.3 20.7 1.5 173.5 1.5 158.7 0 172.9-.1 173.5-1.6 1.8-4.6 8.9-4.4-174.1-4.4-152.3 0-172.4.2-172.9 1.5m579.6 0c-.7.8-1 2.2-.6 3 .5 1.3 19.7 1.5 173.3 1.3l172.8-.3v-5l-172.1-.3c-151.5-.2-172.3 0-173.4 1.3m-579.6 49c-.4.8-.4 2.2 0 3 .5 1.3 20.7 1.5 173.5 1.5 158.7 0 172.9-.1 173.5-1.6 1.8-4.6 8.9-4.4-174.1-4.4-152.3 0-172.4.2-172.9 1.5m579.6 0c-.7.8-1 2.2-.6 3 .5 1.3 19.7 1.5 173.3 1.3l172.8-.3v-5l-172.1-.3c-151.5-.2-172.3 0-173.4 1.3m-126 1.2c-1.4.2-4.2.9-6.2 1.4l-3.8 1v57.6l-4.2 1.3c-2.4.7-6.9 2.6-10.1 4.2-5.5 2.7-6.2 2.8-11.1 1.8-8.7-1.8-17.3.8-23.2 7.2-6.5 6.9-8.6 15.1-6 24 3.1 10.8 12.5 17.8 23.9 17.8 14.3 0 25-10.4 25-24.5 0-8.3-.5-8.9-5.2-6.5-3.5 1.7-3.9 2.4-4.5 6.9-2.5 18.8-29.6 18.5-29.8-.3-.1-5.9 2.7-10.6 8.2-13.4 7.5-3.8 8.4-3.1 4.4 3.5-2.8 4.7-3.4 6.6-3.2 10.3.2 3.6.8 4.7 2.9 5.9 4.4 2.4 7.6.8 10.3-5.2 6.5-14.8 31.8-23.9 53.6-19.3 14.2 3 24.2 9.4 30.5 19.7 2.4 3.9 5.4 5.1 8.6 3.5 5.5-2.7 4.8-10.9-1.6-18.3-1.9-2.3-3.5-4.4-3.5-4.7s1.9-.6 4.3-.6c15.5 0 20.5 21.6 6.7 28.7-5.3 2.8-9.3 2.9-13.9.5-4.5-2.3-6.9-5.7-7.9-11.2-.7-3.9-1.3-4.8-4.9-6.8l-4.2-2.3-.7 2.6c-1 4 .2 11.8 2.5 16.3 2.8 5.6 8.2 9.9 14.8 11.8 12.5 3.6 24.6-1.6 29.9-13.1 3-6.4 3.2-16.1.5-22-2.3-5-8.4-10.9-13.3-13-5-2-14.3-1.9-19.3.3-3.8 1.8-4 1.8-8.5-.4-2.5-1.1-6.2-2.7-8.2-3.3l-3.8-1.2-.2-29.2-.3-29.1-3.5-.7c-1.9-.4-5-.9-6.7-1.3l-3.3-.6v58h-10l-.2-28.7c-.2-18.1-.7-28.7-1.3-28.8-.5-.1-2.1 0-3.5.2m-453.6 47.8c-.4.8-.4 2.2 0 3 .5 1.3 20.7 1.5 173.5 1.5 158.7 0 172.9-.1 173.5-1.6 1.8-4.6 8.9-4.4-174.1-4.4-152.3 0-172.4.2-172.9 1.5m579.6 0c-.7.8-1 2.2-.6 3 .5 1.3 19.7 1.5 173.3 1.3l172.8-.3v-5l-172.1-.3c-151.5-.2-172.3 0-173.4 1.3m-130 30.8-5.5 1.2-.3 28.7-.2 28.6-5.3 1.7c-2.8 1-7.5 3-10.4 4.6-4.3 2.4-5.7 2.7-7.8 1.9-3.4-1.3-11-1.3-15.9.1-2.4.6-5.7 2.9-8.7 5.9-12.5 12.5-9.1 32.2 7.1 40.6 5.1 2.6 16.2 2.4 21.6-.4 4.7-2.4 10-8.1 12-12.8 1.5-3.6 1.9-15.1.6-17.2-.6-.9-1.9-.5-5 1.8-3.7 2.6-4.2 3.5-4.2 6.9 0 4.6-3.4 10-7.5 12-4.2 2-10.6 1.8-14.6-.5-4.6-2.6-8.2-9.7-7.4-14.4 1.4-7.7 6.9-13 13.5-13h3.3l-2.1 2.3c-3.4 3.6-6.4 11.4-5.7 14.7.7 3.2 3.8 6 6.6 6 2.6 0 6.7-3.8 7.4-6.9.7-3.4 8-10.6 14.5-14.3 7.6-4.4 15.4-6.2 27-6.2 18.8 0 34 7 40.9 18.7 2.2 3.7 4.2 6 5.8 6.3 3.5.9 7.7-2.4 8.1-6.4.4-3.4-3.4-11.6-6.7-14.6-4.3-3.9 1.4-5 8.4-1.6 10.5 5.1 11.3 20.2 1.5 26.8-4.8 3.2-13.7 2.8-17.6-.9-3.1-2.8-5.4-7.7-5.4-11.3 0-1.9-1.1-3.1-4.2-5-5-3-5.8-2.4-5.8 4.9 0 9.2 6.2 18.8 14.5 22.6 5.3 2.5 15.6 2.5 21 0 5.1-2.3 11.8-9.8 13.3-14.9 4.3-14.3-2.9-28.7-16.2-32.7-6.4-1.9-8.9-1.8-15.6.4l-5.4 1.9-4.6-2.2c-2.5-1.3-6.2-2.9-8.2-3.5l-3.8-1.2-.2-28.7-.3-28.6-3.5-.7c-1.9-.4-5-.9-6.7-1.3l-3.3-.6v28.4c0 15.5-.2 28.5-.4 28.7-.3.2-2.5.3-5 .1l-4.6-.4-.2-28.1c-.3-31.7.4-29.3-8.8-27.4m-449.6 18.2c-.4.8-.4 2.2 0 3 .5 1.3 20.6 1.5 172.9 1.5 183 0 175.9.2 174.1-4.4-.6-1.5-14.8-1.6-173.5-1.6-152.8 0-173 .2-173.5 1.5m579 0c-.4.8-.1 2.2.6 3 1.1 1.3 21.9 1.5 173.4 1.3l172.1-.3v-5l-172.8-.3c-153.6-.2-172.8 0-173.3 1.3m-579 49c-.4.8-.4 2.2 0 3 .5 1.3 20.6 1.5 172.9 1.5 183 0 175.9.2 174.1-4.4-.6-1.5-14.8-1.6-173.5-1.6-152.8 0-173 .2-173.5 1.5m579 0c-.4.8-.1 2.2.6 3 1.1 1.3 21.9 1.5 173.4 1.3l172.1-.3v-5l-172.8-.3c-153.6-.2-172.8 0-173.3 1.3m-124.9 9.3c-1.6.2-4.7.8-6.7 1.3l-3.8 1v57.7l-3.5.6c-1.8.4-6.5 2.2-10.2 4.1-6.5 3.3-7 3.4-11.9 2.4-7-1.6-13.4-.4-19 3.4-5.5 3.7-10.1 11.2-11 17.8-1.3 9.6 4.5 20.5 13.6 25.2 4.8 2.5 6.3 2.8 12.6 2.5 13.8-.6 22.6-9.5 23.2-23.2.4-8.9-.4-10.4-4.5-8.3-4.1 2.2-5 3.5-5.6 9-.7 7.4-6.7 12.7-14.2 12.7-13 0-19.9-16.3-10.9-25.4 2.6-2.5 9.9-5.5 10.9-4.4.3.3-.8 2.8-2.6 5.6-5.2 8.5-3.8 17.2 2.8 17.2 3.9 0 5.9-1.6 7.7-6.4 3-7.8 14.2-16 26.1-19.1 6.9-1.8 21.1-2 28.7-.4 2.9.6 8.2 2.5 11.7 4.2 6.5 3 16.1 10.9 16.1 13.2 0 .7.9 2.4 2.1 3.9 2.8 3.6 8.2 3.6 10.5.1s1.3-8.6-3.1-15.1c-1.9-3-3.5-5.7-3.5-6 0-.4 2-.4 4.4-.2 14.9 1.7 18.8 21.7 5.6 28.6-5.4 2.7-8.2 2.8-13.5.2-4.4-2.2-7.6-6.6-8.5-12-.4-2.7-1.4-3.9-4.5-5.7-4.6-2.6-5.5-1.9-5.5 4.3-.1 18.4 19 30.8 35.5 23 9.3-4.4 14.4-12.6 14.5-23.1 0-7-3-14.4-7.6-18.7-6.8-6.3-18-8.5-26.4-5.2-3.9 1.6-4.2 1.6-9.8-.9-3.1-1.4-6.9-2.9-8.4-3.2l-2.8-.7v-57.7l-3.7-1c-2.1-.5-5.3-1.2-7-1.5l-3.3-.6v59h-10v-28.9c0-16-.3-29.1-.7-29.3-.5-.2-2.1-.2-3.8 0m-453.3 38.4c-1.9 1.9-1.4 4.7 1.1 5.3 1.2.3 79.1.4 173.1.3 158.2-.3 171-.4 171.9-2 .8-1.2.7-2.1-.2-3.2-1.2-1.5-17.6-1.6-173-1.6-132.2 0-172 .3-172.9 1.2m578.7.4c-.9 1.1-1 2-.2 3.2.9 1.6 13.8 1.7 173.1 2 169.3.2 172.1.2 173.2-1.7.7-1.5.6-2.3-.6-3.5-1.4-1.4-18.5-1.6-172.8-1.6-155.1 0-171.5.2-172.7 1.6M136 623.5c-.6.8-1 2.2-.8 3.2.3 1.7 7.6 1.8 173.2 1.8 165.7 0 172.9-.1 174-1.8.9-1.5.7-2.1-.8-3.3-3-2.1-343.7-2.1-345.6.1m579.4-.1c-1.5 1.2-1.7 1.8-.8 3.3 1.1 1.7 8.4 1.8 172.9 2.1 126.1.1 172.1-.1 173.1-.9 1.8-1.5 1.8-2.4-.2-4.3-1.4-1.4-18.4-1.6-172.3-1.6-147.1 0-171 .2-172.7 1.4"/></svg>