<svg xmlns="http://www.w3.org/2000/svg" width="913.333" height="830.667" viewBox="0 0 685 623"><path fill="currentColor" d="M143 53c-10.9 1.2-12.6 1.6-15 4-1.8 1.8-2 3.4-2 14.9s-.2 13-1.7 13.5c-1 .2-6.3 1.4-11.8 2.6-13.3 2.9-22.6 5.6-25 7.4-1.8 1.3-2 3-2.5 17.7l-.5 16.3-12 2.6c-17.3 3.8-17.2 3.8-19.5 6.2-2 2.2-2 2.6-2 207.9v205.6l2.1 2.7c1.7 2.1 2.9 2.6 6.6 2.6 4.5 0 77.6-6.1 173.7-14.5 28-2.5 51.3-4.2 51.7-3.9.5.3 1.9 2.4 3 4.7 6.6 13.1 18 22.9 31.7 27.4 27.7 8.9 57.3-3 69.3-28 1.9-3.8 2.8-4.7 4.8-4.7 1.5 0 14.8 1.1 29.6 2.5 14.9 1.3 57.6 5.1 95 8.4 37.4 3.4 75.1 6.8 83.7 7.6 17.3 1.6 20.7 1.1 22.7-3.1.8-1.8 1.1-56.4 1.1-207.3V141.3l-2.1-2.7c-2.2-2.8-5.7-4-22.1-7.6l-9.8-2.2V114c0-20 .6-19.5-25.5-25.5-6-1.4-12-2.7-13.2-3-2.2-.5-2.3-.9-2.3-13.6 0-12.3-.1-13.1-2.4-15.4-3.2-3.2-9.6-3.9-35.1-3.9C465 52.5 428 63 392.1 87c-19.4 13-35.7 29.8-48.8 50.3l-5 7.7-3.8-6.4C311.4 99.1 266.1 67.8 217 57.5 195.5 53 162.5 51 143 53m50.7 15.5c28.1 3.6 56.6 13.6 78 27.2 24.5 15.5 44.8 38.1 54.5 60.4l3.8 8.9v336.4l-2.9-4.6c-11.8-18.6-39.9-38.1-68-47.2-29.5-9.6-68.8-11.1-104-4-6.9 1.4-13.1 2.2-13.8 1.9-1.2-.4-1.4-23.6-1.1-154.7.2-84.9.4-170.1.6-189.5l.2-35.2 3.3-.4c8.6-1.1 38.6-.6 49.4.8m339.5-.9 3.7.7v189.3c0 120.3-.3 189.6-.9 189.9-.6.4-5.6-.3-11.3-1.4-30.4-6.1-64.4-6.5-90.5-1.1-33.9 7-64 25.1-82.8 49.6l-5.9 7.7-.3-33.4c-.1-18.4-.1-93.9 0-167.9l.3-134.5 4.8-9.9c7.7-16 14.8-26 27.6-38.7 13.9-13.8 25.6-21.9 46.2-31.8 19.5-9.5 42.6-15.8 66.9-18.4 6.1-.7 38.3-.7 42.2-.1M126 280.1c0 113.3.4 180.7 1 181.8 2.1 4 6 4.4 15.6 1.7 18.1-5.2 32.8-7 57.9-7 26.7-.1 35.9 1.2 55 7.5 17.5 5.8 30.4 13.1 44.6 25.2 6.8 5.8 13.9 13.7 12.4 13.7-.4 0-1.9-.8-3.3-1.9-10.3-7.2-34.5-16.3-54.3-20.3-10.3-2.1-14-2.3-39.4-2.3-29.7.1-34.8.6-59.2 6.1-13.2 2.9-34 9.7-47 15.3l-9.3 3.9V106l2.6-.6c4-1 21.8-5.2 22.7-5.3.4-.1.7 80.9.7 180m439.3-176.6 11.7 2.7v198.4c0 109.1-.2 198.4-.4 198.4-.3 0-4.3-1.6-9.1-3.5-25.3-10.2-55.6-17.7-83.4-20.6-16.5-1.7-51.9-.6-64.1 2-19.3 4.1-34.7 9.8-47.6 17.5-4.3 2.6-7.9 4.4-8.2 4.2-.2-.3 3.3-4.3 8-8.9 18.2-18 43.1-30.5 70.3-35.3 12.6-2.3 51.7-2.6 64-.6 13 2.2 22.5 4.2 29.9 6.3 7.4 2.2 11.6 1.6 13.6-2.2.6-1.1 1-68.5 1-181.8 0-143.6.3-180 1.3-179.6.6.2 6.5 1.6 13 3M86.2 519.6c.4.6 2.1 1.7 3.7 2.3 2.6 1.1 3.7.9 9.8-1.7 41.9-18.4 72.8-26.3 109.3-27.8 46.2-2.1 87.5 12.3 115.7 40.3 8.3 8.2 9.7 9.3 12.9 9.3 5 0 6.9-1.2 15.9-10.4 22.7-23.3 57.8-37.5 96.2-39.2 37.2-1.7 85.1 8.4 124 26.2 8.6 3.9 12.1 4.2 15.4 1.5l2.4-1.9.3-187.2c.2-177.4.3-187.1 2-186.6 1.7.6 16 3.6 16.8 3.6.2 0 .4 88.6.4 197v197h-2.5c-3 0-95.8-8.2-168.8-15-43.2-3.9-54.3-4.7-56.3-3.8-1.8.9-3.7 3.7-6.4 9.5-4.9 10.5-12.1 18-21.7 22.6-6.3 3-7.6 3.2-17.3 3.2-9.9 0-10.9-.2-17.3-3.3-8.9-4.4-15.5-11.3-20.2-21-4.9-10.2-5.9-11.2-10.9-11.2-2.3 0-21.6 1.6-43.1 3.5-21.4 1.9-68.5 6-104.5 9s-67.9 5.8-70.7 6.1l-5.3.6V148.3l9.3-1.9 9.2-1.9.5 187c.3 102.8.8 187.5 1.2 188.1"/></svg>