<!-- @license lucide-static v1.17.0 - ISC -->
<svg
  class="lucide lucide-folder-git-2"
  xmlns="http://www.w3.org/2000/svg"
  width="24"
  height="24"
  viewBox="0 0 24 24"
  fill="none"
  stroke="currentColor"
  stroke-width="2"
  stroke-linecap="round"
  stroke-linejoin="round"
>
  <path d="M9 20a3 3 0 0 1-3-3v-2a2 2 0 0 0-2-2" />
  <path d="M9 20H4a2 2 0 0 1-2-2V5a2 2 0 0 1 2-2h3.93a2 2 0 0 1 1.66.9l.82 1.2a2 2 0 0 0 1.66.9H20a2 2 0 0 1 2 2v.5" />
  <circle cx="13" cy="12" r="2" />
  <path d="M18 19c-2.8 0-5-2.2-5-5v8" />
  <circle cx="20" cy="19" r="2" />
</svg>
