<svg xmlns="http://www.w3.org/2000/svg" width="852" height="894.667" viewBox="0 0 639 671"><path fill="currentColor" d="M439.4 23.8c-1.1.9-4.1 4.4-6.5 7.7-2.5 3.3-11.3 14.8-19.6 25.5-28 36.3-46.3 60.4-56 73.7l-9.6 13.3H218.3c-140.4 0-134.5-.2-135.8 5.3-.3 1.2-.6 7.1-.8 13.2l-.2 11-7.8.7c-9.6.9-16.8 4.4-20.6 10.2l-2.6 4v435.1l2.3 4.3c2.4 4.4 8.9 9.8 14.5 11.9 5.2 1.9 314.6 1.7 328.7-.2 28.8-3.9 47.4-10.2 59.2-20.2 7.9-6.7 115.8-136.4 121.5-146l2.8-4.8.3-214.5c.1-118 0-216-.3-217.8-.7-4-5.9-10.1-10.2-11.8-4.4-1.9-10.7-1.8-14.6.2-1.8.9-6 3.6-9.5 6-12.9 9-9.1 8.4-53.7 8.4H452v-6.4c0-5.8-.3-6.7-2.6-8.5-3.2-2.5-7.2-2.7-10-.3m125.4 15.4c.9.9 1.2 48.9 1.2 209.8 0 181.5-.2 209.3-1.5 213.6-1.6 5.4-10.7 16.8-81.4 101.8-29.9 36-38.4 45.6-40.3 45.6-.5 0-.8-1.2-.8-2.6 0-2.9 6.8-11.9 38.5-50.4 41.3-50.4 70.1-85.6 72.8-89.1l2.7-3.6V253c0-195.3.1-211.5 1.7-213.2 1.8-2.1 5.3-2.4 7.1-.6M431.7 467.8c-11.8 18-70.9 106.7-71.8 107.7-.5.5-.9-84.9-.9-210.7V153.1l20.8-27.8c11.5-15.3 28.6-37.8 38-50.1 9.5-12.3 17.8-23.2 18.5-24.3.9-1.5 1.3 41.7 1.5 202.6L438 458zM542 255v203h-13v-24.8c0-13.6-.2-101.2-.4-194.7-.3-93.5-.2-173.2.1-177.2l.5-7.1 4.6-1c2.6-.5 5.5-1 6.5-1.1 1.6-.1 1.7 10.2 1.7 202.9m-79 1v202h-10V54h10zm12 0v202h-5V54h5zm14 0v202h-6.7l-.7-7.7c-.3-4.2-.6-95.1-.6-202V54h8zm13 0v202h-6V54h6zm20 0v202h-12.9l-.4-32.8c-.1-18-.3-108.9-.4-202L508.1 54H522zM344 378v219l-123.7-.2-123.8-.3-.3-218.8L96 159h248zM81.7 398.1l.3 209.4 2.1 1.7c2 1.7 9.7 1.8 131 1.8H344v16l-135.7-.2c-108.1-.2-136.3-.6-138-1.6-5.6-3.2-5.3 11.3-5.3-220 0-196.9.1-213.1 1.7-214.3 1.4-1.2 11.1-2.9 13.8-2.4.7.1 1.1 70.9 1.2 209.6M459 465.6c0 .7-89.9 128.5-92.1 130.8-.5.5-1.1.7-1.4.4-.5-.5 13.2-21.5 71.3-109.5l14.7-22.3h3.8c2 0 3.7.3 3.7.6m12.4.5c-.7 1.2-18 25.5-68.2 96.1-17.3 24.4-25.3 34.8-26.6 34.8-1.7 0-1.6-.3.6-3.3 1.4-1.7 22.4-31.4 46.7-66 32.8-46.4 44.8-62.7 46.3-62.7 1.2 0 1.6.4 1.2 1.1m12.6-.5c0 .3-4.8 7.2-10.7 15.2-10.8 14.8-52.8 73.3-72.5 100.9-6 8.4-11.6 15.3-12.4 15.3-1.2 0-1.1-.7.8-3.3 1.2-1.7 12.2-17.2 24.3-34.2 12.1-17.1 32.2-45.3 44.5-62.7 14.9-21 23.1-31.8 24.3-31.8.9 0 1.7.3 1.7.6m15 0c0 .2-10.5 14.4-23.2 31.7-33.3 45-72.2 97.8-72.9 98.9-.4.6-1.4.8-2.3.6-1.8-.3 1.7-5.5 42.4-62.3 46.9-65.5 49.6-69 52.9-69 1.7-.1 3.1 0 3.1.1m20 0c0 .3-7.6 10.3-16.8 22.2-15.8 20.4-69.6 90.8-79.1 103.4-3.8 5.1-4.8 5.8-7.7 5.8-1.9 0-3.4-.3-3.4-.8 0-.4 8-11.5 17.7-24.7s29.3-40 43.6-59.5c37.9-51.7 33.4-46.5 40.1-46.7 3.1 0 5.6.1 5.6.3m-2.2 23.6c-29 35.1-68.4 83.2-78.8 96.1-5.2 6.4-9.8 11.7-10.3 11.7s.3-1.7 1.9-3.8c4-5.3 84.2-109.8 93.2-121.4 3.5-4.4 5.1-5.8 7.6-6 1.7-.2 3.5 0 4 .3.4.4-7.5 10.8-17.6 23.1m-90 125c-.3 3.2-.6 3.4-8.3 5.6-14.4 4.1-29.6 6.2-45.1 6.2H359v-15h68.1zM125.9 205.6c-.9 1.1-1 2-.2 3.2.9 1.6 8.5 1.7 93.4 2 50.8.1 93.4 0 94.7-.3 2.6-.6 3.1-4.9.6-5.9-.9-.3-43.3-.6-94.4-.6-83.4 0-92.9.2-94.1 1.6m.1 48.9c-.7.8-1 2.2-.6 3 .5 1.3 11.3 1.5 95.3 1.3l94.8-.3v-5l-94.1-.3c-82.5-.2-94.3 0-95.4 1.3m-.1 48.1c-.9 1.1-1 2-.2 3.2.9 1.6 8.5 1.7 93.4 2 50.8.1 93.4 0 94.7-.3 1.8-.5 2.3-1.1 2-3.3l-.3-2.7-94.1-.3c-85-.2-94.3-.1-95.5 1.4m0 49c-.9 1.1-1 2-.2 3.2.9 1.6 8.5 1.7 93.7 2 62.8.1 93.3-.1 94.7-.8 2.3-1.3 2.5-4.5.3-5.4-.9-.3-43.3-.6-94.4-.6-83.4 0-92.9.2-94.1 1.6m-.5 48.9c-.4.8-.4 2.2 0 3 .5 1.3 11.7 1.5 95.3 1.3l94.8-.3v-5l-94.8-.3c-83.6-.2-94.8 0-95.3 1.3m55.1 47.5-55 .5v5h190l.3-2.3c.2-1.2-.3-2.4-1-2.7-2.2-.7-75.8-1-134.3-.5m-54.4 49.8c-.6 1.1-.6 2.4 0 3.5.9 1.6 7 1.7 94.9 1.7 89 0 94-.1 94.9-1.8.6-1.1.6-2.4 0-3.5-.9-1.6-7-1.7-94.9-1.7-89 0-94 .1-94.9 1.8m-.7 48.7c-.4.8-.4 2.2 0 3 .5 1.3 11.7 1.5 95.3 1.3l94.8-.3v-5l-94.8-.3c-83.6-.2-94.8 0-95.3 1.3"/></svg>