<svg xmlns="http://www.w3.org/2000/svg" width="852" height="894.667" viewBox="0 0 639 671"><path fill="currentColor" d="M167.7 88.1c-8.5 2-17.8 9.1-21.5 16.6-1.1 2.1-3.3 9.2-5 15.8-3.3 12.9-21.5 85-44.2 175-16.7 66.2-24.9 98.3-44.6 175.5-19.2 75.3-19.7 77.3-19.1 83.8 1.1 10.4 7.6 19.4 17.6 24.1l5.6 2.6h519l6.7-3.3c7.6-3.7 12-8.5 14.9-16.2 3.5-9.4 3.2-11.2-15.6-82-4.6-17.3-12.2-45.9-16.9-63.5-10.6-40.2-53.7-203.6-69-262-6.7-25.6-12.6-46.2-14.2-49.2-3.2-6.5-8.9-11.7-16.3-15.2l-5.6-2.6-144-.2c-82 0-145.6.3-147.8.8m288.8 15c7.6 1.9 11.3 6.1 14.1 15.9 2.3 7.8 21.7 81.1 53 200 6.9 26.1 15.4 58.3 18.9 71.5s10 37.9 14.5 55c4.5 17 9.9 37.3 12 45s6.4 24.3 9.6 37c6.3 25.3 6.5 27.9 1.7 33.6-5.4 6.3 14.6 5.9-264.5 5.9-248.4 0-255.4-.1-259.5-1.9-2.3-1.1-4.9-3.1-5.8-4.5-3.4-5.1-2.9-9.8 3.4-34.6 3.2-12.9 12.7-50.1 20.9-82.5 8.3-32.5 20.1-78.8 26.2-103s13.3-52.6 16-63c2.7-10.5 10.3-40.6 17-67 20.6-81.5 25.2-98.9 26.4-100.7 2-2.8 6-5.6 9.7-6.6 5-1.5 280.6-1.5 286.4-.1m-270.1 95.4c-.4.8-.1 2.2.6 3 1.1 1.3 17.1 1.5 128.5 1.5s127.4-.2 128.5-1.5c.7-.8 1-2.2.6-3-.5-1.3-15.3-1.5-129.1-1.5s-128.6.2-129.1 1.5m-9 46.9c-1.5 1.2-1.7 1.8-.8 3.3 1.1 1.7 7.2 1.8 138.1 2.1 118.1.2 137.2 0 138.9-1.2 1.5-1.2 1.7-1.8.8-3.3-1.1-1.7-7.2-1.8-138.1-2.1-118.1-.2-137.2 0-138.9 1.2m-12.2 50.8c-.7.7-.8 1.7-.1 3 .9 1.7 6.1 1.8 149.8 1.8 130.5 0 149-.2 150.1-1.5.7-.8 1-2.2.6-3-.5-1.3-17.5-1.5-149.9-1.5-111.4 0-149.6.3-150.5 1.2m-10.3 52.4c-.9 1.1-1 2-.2 3.2.9 1.6 12.8 1.7 158.9 2 86.8.1 158.9 0 160.2-.3 2.6-.6 3.1-4.9.6-5.9-.9-.3-72.8-.6-159.9-.6-143.2 0-158.4.2-159.6 1.6m-12.8 55.8c-.6.7-.9 2.1-.5 3 .6 1.5 14.8 1.6 174 1.6 153.9 0 173.5-.2 174-1.5.4-.8.1-2.2-.6-3-1.1-1.3-22.3-1.5-173.5-1.5-144.8 0-172.4.2-173.4 1.4m-10.8 48.3c-1.6.6-1.7 3.5-.1 5.1.9.9 24.9 1.2 101.8 1.2 86.1 0 100.9-.2 102.6-1.4 1.5-1.2 1.7-1.8.8-3.3-1.1-1.7-5.9-1.8-102.5-2-55.8-.1-102 .1-102.6.4"/></svg>